HIERARCHY
ROOT Hips
{
    OFFSET   0.000000   0.000000   0.000000
    CHANNELS 6 Xposition Yposition Zposition Zrotation Xrotation Yrotation
    JOINT Chest
    {
        OFFSET   0.000000   8.007230   0.000000
        CHANNELS 3 Zrotation Xrotation Yrotation
        JOINT Chest2
        {
            OFFSET   0.000000  22.077100   0.000000
            CHANNELS 3 Zrotation Xrotation Yrotation
            JOINT Neck
            {
                OFFSET   0.000000  23.255100   0.000000
                CHANNELS 3 Zrotation Xrotation Yrotation
                JOINT Head
                {
                    OFFSET   0.000000  14.370100   1.956600
                    CHANNELS 3 Zrotation Xrotation Yrotation
                    End Site
                    {
                        OFFSET   0.000000  19.566000   0.000000
                    }
                }
            }
            JOINT LeftCollar
            {
                OFFSET   3.911900  19.017000  -0.467063
                CHANNELS 3 Zrotation Xrotation Yrotation
                JOINT LeftShoulder
                {
                    OFFSET  10.383700   0.000000   0.000000
                    CHANNELS 3 Zrotation Xrotation Yrotation
                    JOINT LeftElbow
                    {
                        OFFSET  26.662100   0.001193   0.000980
                        CHANNELS 3 Zrotation Xrotation Yrotation
                        JOINT LeftWrist
                        {
                            OFFSET  28.869000  -0.000059  -0.000082
                            CHANNELS 3 Zrotation Xrotation Yrotation
                            JOINT LeftFinger0
                            {
                                OFFSET   2.044650  -2.323450   3.252850
                                CHANNELS 3 Zrotation Xrotation Yrotation
                                JOINT LeftFinger01
                                {
                                    OFFSET   3.088130   0.000000   0.000000
                                    CHANNELS 3 Zrotation Xrotation Yrotation
                                    JOINT LeftFinger02
                                    {
                                        OFFSET   2.639460   0.000000   0.000000
                                        CHANNELS 3 Zrotation Xrotation Yrotation
                                        End Site
                                        {
                                            OFFSET   2.582190   0.000000   0.000000
                                        }
                                    }
                                }
                            }
                            JOINT LeftFinger1
                            {
                                OFFSET   8.364480   0.000000   3.252850
                                CHANNELS 3 Zrotation Xrotation Yrotation
                                JOINT LeftFinger11
                                {
                                    OFFSET   4.646930   0.000000   0.000000
                                    CHANNELS 3 Zrotation Xrotation Yrotation
                                    JOINT LeftFinger12
                                    {
                                        OFFSET   2.323470   0.000000   0.000000
                                        CHANNELS 3 Zrotation Xrotation Yrotation
                                        End Site
                                        {
                                            OFFSET   2.273050   0.000000   0.000000
                                        }
                                    }
                                }
                            }
                            JOINT LeftFinger2
                            {
                                OFFSET   8.364490   0.000016   1.078090
                                CHANNELS 3 Zrotation Xrotation Yrotation
                                JOINT LeftFinger21
                                {
                                    OFFSET   5.111610   0.000000   0.000000
                                    CHANNELS 3 Zrotation Xrotation Yrotation
                                    JOINT LeftFinger22
                                    {
                                        OFFSET   2.788150   0.000016   0.000000
                                        CHANNELS 3 Zrotation Xrotation Yrotation
                                        End Site
                                        {
                                            OFFSET   2.727660   0.000000   0.000000
                                        }
                                    }
                                }
                            }
                            JOINT LeftFinger3
                            {
                                OFFSET   7.899780   0.000015  -1.078090
                                CHANNELS 3 Zrotation Xrotation Yrotation
                                JOINT LeftFinger31
                                {
                                    OFFSET   4.646930   0.000000   0.000000
                                    CHANNELS 3 Zrotation Xrotation Yrotation
                                    JOINT LeftFinger32
                                    {
                                        OFFSET   2.323470   0.000000   0.000000
                                        CHANNELS 3 Zrotation Xrotation Yrotation
                                        End Site
                                        {
                                            OFFSET   2.273050   0.000000   0.000000
                                        }
                                    }
                                }
                            }
                            JOINT LeftFinger4
                            {
                                OFFSET   7.435090   0.000000  -3.252850
                                CHANNELS 3 Zrotation Xrotation Yrotation
                                JOINT LeftFinger41
                                {
                                    OFFSET   3.717550   0.000000   0.000000
                                    CHANNELS 3 Zrotation Xrotation Yrotation
                                    JOINT LeftFinger42
                                    {
                                        OFFSET   1.858770   0.000000   0.000000
                                        CHANNELS 3 Zrotation Xrotation Yrotation
                                        End Site
                                        {
                                            OFFSET   1.818440   0.000000   0.000000
                                        }
                                    }
                                }
                            }
                        }
                    }
                }
            }
            JOINT RightCollar
            {
                OFFSET  -3.911910  19.017000  -0.467062
                CHANNELS 3 Zrotation Xrotation Yrotation
                JOINT RightShoulder
                {
                    OFFSET -10.383700   0.000014   0.000000
                    CHANNELS 3 Zrotation Xrotation Yrotation
                    JOINT RightElbow
                    {
                        OFFSET -26.662100   0.001225   0.001091
                        CHANNELS 3 Zrotation Xrotation Yrotation
                        JOINT RightWrist
                        {
                            OFFSET -28.869000  -0.000020  -0.000085
                            CHANNELS 3 Zrotation Xrotation Yrotation
                            JOINT RightFinger0
                            {
                                OFFSET  -2.044650  -2.323490   3.252850
                                CHANNELS 3 Zrotation Xrotation Yrotation
                                JOINT RightFinger01
                                {
                                    OFFSET  -3.088130   0.000000   0.000000
                                    CHANNELS 3 Zrotation Xrotation Yrotation
                                    JOINT RightFinger02
                                    {
                                        OFFSET  -2.639460   0.000000   0.000000
                                        CHANNELS 3 Zrotation Xrotation Yrotation
                                        End Site
                                        {
                                            OFFSET  -2.582190   0.000000   0.000000
                                        }
                                    }
                                }
                            }
                            JOINT RightFinger1
                            {
                                OFFSET  -8.364480   0.000000   3.252850
                                CHANNELS 3 Zrotation Xrotation Yrotation
                                JOINT RightFinger11
                                {
                                    OFFSET  -4.646930   0.000000   0.000000
                                    CHANNELS 3 Zrotation Xrotation Yrotation
                                    JOINT RightFinger12
                                    {
                                        OFFSET  -2.323470   0.000000   0.000000
                                        CHANNELS 3 Zrotation Xrotation Yrotation
                                        End Site
                                        {
                                            OFFSET  -2.273050   0.000000   0.000000
                                        }
                                    }
                                }
                            }
                            JOINT RightFinger2
                            {
                                OFFSET  -8.364480   0.000000   1.078090
                                CHANNELS 3 Zrotation Xrotation Yrotation
                                JOINT RightFinger21
                                {
                                    OFFSET  -5.111620   0.000000   0.000000
                                    CHANNELS 3 Zrotation Xrotation Yrotation
                                    JOINT RightFinger22
                                    {
                                        OFFSET  -2.788160   0.000000   0.000000
                                        CHANNELS 3 Zrotation Xrotation Yrotation
                                        End Site
                                        {
                                            OFFSET  -2.727660   0.000000   0.000000
                                        }
                                    }
                                }
                            }
                            JOINT RightFinger3
                            {
                                OFFSET  -7.899780   0.000000  -1.078090
                                CHANNELS 3 Zrotation Xrotation Yrotation
                                JOINT RightFinger31
                                {
                                    OFFSET  -4.646930   0.000000   0.000000
                                    CHANNELS 3 Zrotation Xrotation Yrotation
                                    JOINT RightFinger32
                                    {
                                        OFFSET  -2.323470   0.000000   0.000000
                                        CHANNELS 3 Zrotation Xrotation Yrotation
                                        End Site
                                        {
                                            OFFSET  -2.273050   0.000000   0.000000
                                        }
                                    }
                                }
                            }
                            JOINT RightFinger4
                            {
                                OFFSET  -7.435090   0.000000  -3.252850
                                CHANNELS 3 Zrotation Xrotation Yrotation
                                JOINT RightFinger41
                                {
                                    OFFSET  -3.717550   0.000000   0.000000
                                    CHANNELS 3 Zrotation Xrotation Yrotation
                                    JOINT RightFinger42
                                    {
                                        OFFSET  -1.858760   0.000000   0.000000
                                        CHANNELS 3 Zrotation Xrotation Yrotation
                                        End Site
                                        {
                                            OFFSET  -1.818440   0.000000   0.000000
                                        }
                                    }
                                }
                            }
                        }
                    }
                }
            }
        }
    }
    JOINT LeftHip
    {
        OFFSET   9.783030   0.000000   0.000000
        CHANNELS 3 Zrotation Xrotation Yrotation
        JOINT LeftKnee
        {
            OFFSET   0.000063 -41.789100   0.000608
            CHANNELS 3 Zrotation Xrotation Yrotation
            JOINT LeftAnkle
            {
                OFFSET   0.000048 -41.133200  -0.000184
                CHANNELS 3 Zrotation Xrotation Yrotation
                JOINT LeftToe
                {
                    OFFSET   0.000000  -6.358960  14.674500
                    CHANNELS 3 Zrotation Xrotation Yrotation
                    End Site
                    {
                        OFFSET   0.000000   0.000000   3.913200
                    }
                }
            }
        }
    }
    JOINT RightHip
    {
        OFFSET  -9.783030   0.000000   0.000000
        CHANNELS 3 Zrotation Xrotation Yrotation
        JOINT RightKnee
        {
            OFFSET   0.000071 -41.789100   0.001239
            CHANNELS 3 Zrotation Xrotation Yrotation
            JOINT RightAnkle
            {
                OFFSET   0.000037 -41.133200  -0.000166
                CHANNELS 3 Zrotation Xrotation Yrotation
                JOINT RightToe
                {
                    OFFSET   0.000000  -6.358960  14.674500
                    CHANNELS 3 Zrotation Xrotation Yrotation
                    End Site
                    {
                        OFFSET   0.000000   0.000000   3.913200
                    }
                }
            }
        }
    }
}
MOTION
Frames: 4
Frame Time:   0.016667
  0.159546  89.993200   0.737175  -0.240075  -0.316326  -0.197967  -0.134905   1.013430  -1.124930  -0.249940   2.029320  -2.248020   1.206260   0.972994  -0.023282   1.991960   1.970750   4.380940  -4.640480  -0.535409   4.077870 -71.438500  20.812000   3.834660  -3.645090  -4.779990 -14.672300  14.816200  -7.431410   6.684120  53.349500  45.739400 -91.389300 -17.968500   0.001374   0.001938  -3.979990   0.006873   0.008254 -30.473500   8.145450 -13.538500 -25.727000   0.009251   0.003187 -18.008900  -0.001681   0.003013 -28.651100  -0.148618   0.285036 -38.048500   0.008163  -0.002841 -25.340300   0.009715  -0.011470 -27.775300  -0.144470   0.287372 -30.622700   0.005013  -0.003764 -20.394700   0.000154   0.004039 -30.932400  -0.552223   0.921436 -46.405200  -0.001236   0.001112 -30.905900  -0.001363   0.003670   9.150820   2.110140   6.374590  68.364500   6.792870  -3.693690   2.172810  -6.866400   9.508710  -6.621290 -20.330100  -1.900240 -36.716600  24.172000  61.058200  27.041000  -0.000733  -0.002946   8.520510  -0.007380   0.010499  23.236900   0.578740   1.347660  19.017500   0.007442  -0.004502  13.312300   0.004167  -0.002399  22.226200  -2.062560  -5.033440  22.316900   0.005575  -0.007148  14.863100   0.011487  -0.004343  23.368700  -4.744870 -10.839900  23.818900  -0.002525  -0.008227  15.863400  -0.002933  -0.004920  30.975100  -6.142860 -10.114200  47.277600  -0.004906   0.005964  31.486900  -0.001839   0.002815   0.246926   1.992380  -1.781180  -0.093155   0.872720  13.361000  -5.017820  -3.789080   4.545960   0.000000   0.000000  -0.000000   1.437980   2.354520  -9.457320   0.630660   0.726099  -7.022860 -10.124300   0.606819  -0.246123  -0.000000   0.000000   0.000000
  0.162583  89.993200   0.737286  -0.240109  -0.328756  -0.204566  -0.134988   1.023120  -1.116740  -0.250062   2.048660  -2.231600   1.205410   1.006810  -0.023271   1.988900   2.038900   4.368450  -4.640520  -0.535294   4.061190 -71.429800  20.821700   3.818580  -3.649060  -4.791840 -14.677700  14.808800  -7.434950   6.671260  53.344100  45.734100 -91.379300 -17.973500   0.001374   0.001936  -3.984360   0.006876   0.008251 -30.476400   8.147630 -13.540500 -25.726400   0.009254   0.003183 -18.008500  -0.001684   0.003008 -28.651100  -0.148618   0.281210 -38.057500   0.008158  -0.002835 -25.346300   0.009710  -0.011470 -27.774800  -0.144470   0.283512 -30.631400   0.005016  -0.003772 -20.400500   0.000156   0.004037 -30.938200  -0.548203   0.914501 -46.413800  -0.001230   0.001113 -30.911700  -0.001356   0.003672   9.173130   2.069040   6.389700  68.319200   6.757230  -3.712610   2.170340  -6.964710   9.474980  -6.607850 -20.299900  -1.918840 -36.709600  24.153200  61.033500  27.051400  -0.000726  -0.002948   8.525680  -0.007379   0.010499  23.241400   0.566094   1.317820  19.021000   0.007442  -0.004502  13.314800   0.004167  -0.002401  22.225700  -2.074360  -5.062210  22.317400   0.005579  -0.007149  14.863500   0.011489  -0.004343  23.365400  -4.744840 -10.841400  23.815700  -0.002524  -0.008228  15.861300  -0.002935  -0.004922  30.982100  -6.142990 -10.115500  47.288200  -0.004907   0.005957  31.493900  -0.001842   0.002816   0.246208   2.107040  -1.781090  -0.087964   0.765841  13.376600  -5.018550  -3.785530   4.540620   0.000000   0.000000  -0.000000   1.436920   2.361500  -9.454070   0.629621   0.729359  -7.029820 -10.124900   0.609550  -0.233209  -0.000000   0.000000   0.000000
  0.168258  89.993300   0.737448  -0.240154  -0.353196  -0.214020  -0.135131   1.041280  -1.102030  -0.250263   2.084960  -2.202130   1.203730   1.064730  -0.023260   1.983530   2.155820   4.351180  -4.640660  -0.535124   4.034680 -71.413500  20.841800   3.786890  -3.656450  -4.813950 -14.691400  14.798500  -7.442520   6.651050  53.342000  45.728800 -91.369300 -17.984300   0.001375   0.001927  -3.992190   0.006879   0.008249 -30.480700   8.152210 -13.545600 -25.725800   0.009268   0.003172 -18.008100  -0.001693   0.002994 -28.651100  -0.148616   0.272084 -38.066600   0.008146  -0.002819 -25.352300   0.009697  -0.011469 -27.774300  -0.144470   0.274309 -30.640000   0.005021  -0.003795 -20.406200   0.000162   0.004033 -30.947100  -0.540650   0.901566 -46.426900  -0.001213   0.001113 -30.920400  -0.001337   0.003679   9.208730   2.000740   6.413560  68.237100   6.699890  -3.737200   2.164550  -7.116210   9.418320  -6.584610 -20.246200  -1.951070 -36.701000  24.137200  61.004700  27.061700  -0.000712  -0.002951   8.530850  -0.007375   0.010498  23.246100   0.548644   1.276970  19.024500   0.007442  -0.004503  13.317200   0.004165  -0.002407  22.225200  -2.086160  -5.090980  22.318000   0.005591  -0.007151  14.863800   0.011495  -0.004344  23.353800  -4.744790 -10.844900  23.804400  -0.002523  -0.008231  15.853800  -0.002938  -0.004927  30.988900  -6.143130 -10.118800  47.298700  -0.004909   0.005938  31.500900  -0.001850   0.002822   0.244268   2.267240  -1.781050  -0.083158   0.630658  13.399800  -5.020330  -3.778730   4.532820   0.000000   0.000000  -0.000000   1.432910   2.378470  -9.446700   0.629120   0.736275  -7.043340 -10.125600   0.612282  -0.214019  -0.000000   0.000000   0.000000
  0.174001  89.993300   0.737540  -0.240149  -0.380307  -0.218840  -0.135325   1.059850  -1.087540  -0.250516   2.122070  -2.173130   1.201770   1.113410  -0.023552   1.978140   2.254610   4.344440  -4.640880  -0.535014   4.015760 -71.396600  20.866800   3.751400  -3.661470  -4.836420 -14.711300  14.794200  -7.453010   6.636520  53.348300  45.729400 -91.370600 -17.997000   0.001351   0.001911  -3.998820   0.006881   0.008272 -30.481000   8.157350 -13.553600 -25.729100   0.009298   0.003158 -18.010300  -0.001715   0.002972 -28.651200  -0.141796   0.256951 -38.060500   0.008125  -0.002793 -25.348200   0.009677  -0.011468 -27.776000  -0.137842   0.259056 -30.639800   0.005031  -0.003828 -20.406100   0.000169   0.004025 -30.950500  -0.532349   0.887205 -46.431900  -0.001187   0.001110 -30.923700  -0.001308   0.003693   9.238040   1.946090   6.433470  68.158400   6.648740  -3.743620   2.158020  -7.213200   9.377310  -6.563000 -20.200800  -1.977610 -36.726000  24.188800  61.035700  27.050900  -0.000696  -0.002954   8.525450  -0.007358   0.010500  23.232900   0.544683   1.268660  19.013600   0.007437  -0.004505  13.309500   0.004157  -0.002412  22.203800  -2.080280  -5.083860  22.296200   0.005607  -0.007157  14.849300   0.011506  -0.004344  23.329700  -4.742090 -10.850000  23.780300  -0.002523  -0.008238  15.837700  -0.002942  -0.004930  30.966800  -6.143110 -10.124500  47.266400  -0.004917   0.005904  31.479400  -0.001863   0.002834   0.240098   2.334780  -1.781230  -0.083843   0.597611  13.412800  -5.024900  -3.770890   4.529020  -0.000000   0.000000  -0.000000   1.424450   2.404060  -9.433450   0.636181   0.744955  -7.059880 -10.125400   0.606148  -0.204322  -0.000000   0.000000  -0.000000
